<svg width="236" height="236" viewBox="0 0 236 236" fill="none" xmlns="http://www.w3.org/2000/svg">
<rect width="236" height="236" rx="118" fill="#1C1D20"/>
<path d="M64.3096 90.7254V113.098L55.3134 107.856C54.1682 107.19 53.457 105.944 53.457 104.609V83.7044C53.457 81.96 54.3881 80.3309 55.8846 79.4601L64.1068 74.6679L81.7337 99.5688V67.2172C81.7337 65.4728 82.6647 63.8437 84.1613 62.9729L92.5863 58.0625V107.198C92.5863 108.533 91.8752 109.776 90.7299 110.445L81.9336 115.572L64.3125 90.7283L64.3096 90.7254Z" fill="white"/>
<path d="M75.6889 168.478C75.0377 168.478 74.3951 168.305 73.8325 167.976L56.1481 157.668C54.4914 156.702 53.4725 154.929 53.4725 153.011V143.67C53.4725 143.67 55.3574 143.508 57.8592 143.263L83.6484 140.731L55.8972 124.555C54.3978 123.685 53.4668 122.058 53.4668 120.314V110.49L95.6119 135.057C96.7572 135.723 97.4683 136.968 97.4683 138.303V148.56L67.3467 151.547L86.5357 162.731L77.5424 167.976C76.9798 168.305 76.3372 168.478 75.686 168.478H75.6889Z" fill="white"/>
<path d="M118.016 192.958C117.165 192.958 116.325 192.73 115.588 192.301L107.366 187.509L119.912 159.646L92.161 175.822C91.4242 176.252 90.5845 176.48 89.7334 176.48C88.8824 176.48 88.0427 176.252 87.3059 175.822L78.8809 170.912L121.029 146.345C121.591 146.017 122.234 145.844 122.885 145.844C123.536 145.844 124.179 146.017 124.742 146.345L133.538 151.472L121.04 179.303L140.229 168.118V178.605C140.229 179.94 139.521 181.185 138.376 181.851L120.443 192.304C119.707 192.733 118.867 192.961 118.016 192.961V192.958Z" fill="white"/>
<path d="M143.415 129.766C143.415 128.431 144.126 127.188 145.271 126.519L154.068 121.393L171.689 146.236V123.864L180.685 129.106C181.83 129.775 182.541 131.017 182.541 132.352V153.257C182.541 155.001 181.61 156.63 180.114 157.501L171.892 162.293L154.265 137.392V169.744C154.265 171.488 153.334 173.118 151.837 173.988L143.412 178.899V129.763L143.415 129.766Z" fill="white"/>
<path d="M140.392 101.902C139.246 101.233 138.535 99.9901 138.535 98.6551V88.3989L168.657 85.4117L149.468 74.227L158.461 68.9822C159.024 68.6535 159.666 68.4805 160.317 68.4805C160.969 68.4805 161.611 68.6535 162.174 68.9822L180.106 79.4344C181.603 80.3081 182.534 81.9343 182.534 83.6788V93.2631L152.361 96.2244L180.112 112.4C181.608 113.274 182.54 114.9 182.54 116.644V126.465L140.392 101.899V101.902Z" fill="white"/>
<path d="M113.118 91.1173C112.466 91.1173 111.824 90.9443 111.261 90.6156L102.465 85.489L114.963 57.6586L95.7734 68.8432V58.3564C95.7734 57.0213 96.4817 55.7757 97.6269 55.1097L115.559 44.6574C116.296 44.2278 117.136 44 117.987 44C118.838 44 119.678 44.2278 120.415 44.6574L128.637 49.4496L116.091 77.3117L143.842 61.1359C144.579 60.7063 145.418 60.4785 146.269 60.4785C147.12 60.4785 147.96 60.7063 148.697 61.1359L157.122 66.0463L114.974 90.6127C114.411 90.9414 113.769 91.1144 113.118 91.1144V91.1173Z" fill="white"/>
</svg>
