<svg width="236" height="236" viewBox="0 0 236 236" fill="none" xmlns="http://www.w3.org/2000/svg">
<path d="M67.6665 92.9365V113.495L59.2325 108.678C58.1589 108.066 57.4922 106.921 57.4922 105.694V86.4847C57.4922 84.8817 58.365 83.3847 59.768 82.5845L67.4764 78.1809L84.0016 101.063V71.3343C84.0016 69.7313 84.8744 68.2343 86.2774 67.4341L94.1759 62.9219V108.074C94.1759 109.3 93.5092 110.442 92.4355 111.057L84.189 115.768L67.6692 92.9391L67.6665 92.9365Z" fill="white"/>
<path d="M78.3332 164.386C77.7227 164.386 77.1203 164.227 76.5929 163.925L60.2214 154.571C58.5419 153.611 57.5054 151.825 57.5054 149.891V141.589C57.5054 141.589 59.2725 141.44 61.6179 141.215L85.7952 138.889L59.7785 124.024C58.3728 123.224 57.5 121.73 57.5 120.127V111.1L97.0111 133.674C98.0847 134.286 98.7514 135.431 98.7514 136.658V146.082L70.5124 148.827L88.5021 159.105L80.0709 163.925C79.5434 164.227 78.941 164.386 78.3305 164.386H78.3332Z" fill="white"/>
<path d="M118.013 186.88C117.215 186.88 116.428 186.671 115.737 186.276L108.029 181.873L119.791 156.27L93.7743 171.134C93.0836 171.529 92.2964 171.738 91.4985 171.738C90.7006 171.738 89.9135 171.529 89.2227 171.134L81.3242 166.622L120.838 144.047C121.365 143.745 121.968 143.586 122.578 143.586C123.189 143.586 123.791 143.745 124.319 144.047L132.565 148.758L120.849 174.332L138.838 164.054V173.691C138.838 174.917 138.174 176.062 137.101 176.674L120.289 186.279C119.598 186.674 118.811 186.883 118.013 186.883V186.88Z" fill="white"/>
<path d="M141.827 128.812C141.827 127.585 142.494 126.443 143.567 125.828L151.814 121.117L168.334 143.946V123.388L176.768 128.205C177.841 128.82 178.508 129.962 178.508 131.188V150.398C178.508 152.001 177.635 153.498 176.232 154.298L168.524 158.702L151.999 135.82V165.548C151.999 167.151 151.126 168.648 149.723 169.448L141.824 173.961V128.809L141.827 128.812Z" fill="white"/>
<path d="M138.992 103.206C137.919 102.591 137.252 101.449 137.252 100.222V90.7975L165.491 88.0526L147.501 77.7748L155.932 72.9552C156.46 72.6531 157.062 72.4941 157.673 72.4941C158.283 72.4941 158.886 72.6531 159.413 72.9552L176.225 82.5599C177.628 83.3628 178.501 84.8571 178.501 86.4601V95.2674L150.213 97.9885L176.23 112.853C177.633 113.656 178.506 115.15 178.506 116.753V125.777L138.992 103.203V103.206Z" fill="white"/>
<path d="M113.422 93.297C112.812 93.297 112.209 93.138 111.682 92.836L103.435 88.125L115.152 62.5511L97.1621 72.8289V63.1923C97.1621 61.9656 97.8261 60.8209 98.8998 60.2089L115.711 50.6041C116.402 50.2093 117.189 50 117.987 50C118.785 50 119.572 50.2093 120.263 50.6041L127.971 55.0077L116.209 80.6108L142.226 65.7465C142.917 65.3517 143.704 65.1424 144.502 65.1424C145.3 65.1424 146.087 65.3517 146.778 65.7465L154.676 70.2588L115.163 92.8333C114.635 93.1354 114.033 93.2944 113.422 93.2944V93.297Z" fill="white"/>
</svg>
